<svg xmlns="http://www.w3.org/2000/svg" version="1.1" xmlns:xlink="http://www.w3.org/1999/xlink" xmlns:svgjs="http://svgjs.dev/svgjs" viewBox="0 0 800 800" width="800" height="800"><g stroke-width="3.5" stroke="hsla(170, 59%, 69%, 1.00)" fill="none"><rect width="66.66666666666667" height="8.578947368421051" x="-33.333333333333336" y="-4.289473684210526" stroke="none" fill="hsla(26, 10%, 50%, 1.00)" rx="4.289473684210526" transform="rotate(45, 0, 0)"></rect><rect width="8.578947368421051" height="66.66666666666667" x="-4.289473684210526" y="-33.333333333333336" stroke="none" fill="hsla(26, 10%, 50%, 1.00)" rx="4.289473684210526" transform="rotate(45, 0, 0)"></rect><rect width="66.66666666666667" height="8.578947368421051" x="100" y="-4.289473684210526" stroke="none" fill="hsla(170, 59%, 69%, 1.00)" rx="4.289473684210526" transform="rotate(45, 133.33333333333334, 0)"></rect><rect width="8.578947368421051" height="66.66666666666667" x="129.04385964912282" y="-33.333333333333336" stroke="none" fill="hsla(170, 59%, 69%, 1.00)" rx="4.289473684210526" transform="rotate(45, 133.33333333333334, 0)"></rect><rect width="66.66666666666667" height="8.578947368421051" x="233.33333333333334" y="-4.289473684210526" stroke="none" fill="hsla(26, 10%, 50%, 1.00)" rx="4.289473684210526" transform="rotate(45, 266.6666666666667, 0)"></rect><rect width="8.578947368421051" height="66.66666666666667" x="262.37719298245617" y="-33.333333333333336" stroke="none" fill="hsla(26, 10%, 50%, 1.00)" rx="4.289473684210526" transform="rotate(45, 266.6666666666667, 0)"></rect><rect width="66.66666666666667" height="8.578947368421051" x="366.6666666666667" y="-4.289473684210526" stroke="none" fill="hsla(170, 59%, 69%, 1.00)" rx="4.289473684210526" transform="rotate(45, 400, 0)"></rect><rect width="8.578947368421051" height="66.66666666666667" x="395.7105263157895" y="-33.333333333333336" stroke="none" fill="hsla(170, 59%, 69%, 1.00)" rx="4.289473684210526" transform="rotate(45, 400, 0)"></rect><rect width="66.66666666666667" height="8.578947368421051" x="500.00000000000006" y="-4.289473684210526" stroke="none" fill="hsla(26, 10%, 50%, 1.00)" rx="4.289473684210526" transform="rotate(45, 533.3333333333334, 0)"></rect><rect width="8.578947368421051" height="66.66666666666667" x="529.0438596491229" y="-33.333333333333336" stroke="none" fill="hsla(26, 10%, 50%, 1.00)" rx="4.289473684210526" transform="rotate(45, 533.3333333333334, 0)"></rect><rect width="66.66666666666667" height="8.578947368421051" x="633.3333333333334" y="-4.289473684210526" stroke="none" fill="hsla(170, 59%, 69%, 1.00)" rx="4.289473684210526" transform="rotate(45, 666.6666666666667, 0)"></rect><rect width="8.578947368421051" height="66.66666666666667" x="662.3771929824562" y="-33.333333333333336" stroke="none" fill="hsla(170, 59%, 69%, 1.00)" rx="4.289473684210526" transform="rotate(45, 666.6666666666667, 0)"></rect><rect width="66.66666666666667" height="8.578947368421051" x="766.6666666666667" y="-4.289473684210526" stroke="none" fill="hsla(26, 10%, 50%, 1.00)" rx="4.289473684210526" transform="rotate(45, 800.0000000000001, 0)"></rect><rect width="8.578947368421051" height="66.66666666666667" x="795.7105263157896" y="-33.333333333333336" stroke="none" fill="hsla(26, 10%, 50%, 1.00)" rx="4.289473684210526" transform="rotate(45, 800.0000000000001, 0)"></rect><rect width="66.66666666666667" height="8.578947368421051" x="-33.333333333333336" y="129.04385964912282" stroke="none" fill="hsla(170, 59%, 69%, 1.00)" rx="4.289473684210526" transform="rotate(45, 0, 133.33333333333334)"></rect><rect width="8.578947368421051" height="66.66666666666667" x="-4.289473684210526" y="100" stroke="none" fill="hsla(170, 59%, 69%, 1.00)" rx="4.289473684210526" transform="rotate(45, 0, 133.33333333333334)"></rect><rect width="66.66666666666667" height="8.578947368421051" x="100" y="129.04385964912282" stroke="none" fill="hsla(26, 10%, 50%, 1.00)" rx="4.289473684210526" transform="rotate(45, 133.33333333333334, 133.33333333333334)"></rect><rect width="8.578947368421051" height="66.66666666666667" x="129.04385964912282" y="100" stroke="none" fill="hsla(26, 10%, 50%, 1.00)" rx="4.289473684210526" transform="rotate(45, 133.33333333333334, 133.33333333333334)"></rect><rect width="66.66666666666667" height="8.578947368421051" x="233.33333333333334" y="129.04385964912282" stroke="none" fill="hsla(170, 59%, 69%, 1.00)" rx="4.289473684210526" transform="rotate(45, 266.6666666666667, 133.33333333333334)"></rect><rect width="8.578947368421051" height="66.66666666666667" x="262.37719298245617" y="100" stroke="none" fill="hsla(170, 59%, 69%, 1.00)" rx="4.289473684210526" transform="rotate(45, 266.6666666666667, 133.33333333333334)"></rect><rect width="66.66666666666667" height="8.578947368421051" x="366.6666666666667" y="129.04385964912282" stroke="none" fill="hsla(26, 10%, 50%, 1.00)" rx="4.289473684210526" transform="rotate(45, 400, 133.33333333333334)"></rect><rect width="8.578947368421051" height="66.66666666666667" x="395.7105263157895" y="100" stroke="none" fill="hsla(26, 10%, 50%, 1.00)" rx="4.289473684210526" transform="rotate(45, 400, 133.33333333333334)"></rect><rect width="66.66666666666667" height="8.578947368421051" x="500.00000000000006" y="129.04385964912282" stroke="none" fill="hsla(170, 59%, 69%, 1.00)" rx="4.289473684210526" transform="rotate(45, 533.3333333333334, 133.33333333333334)"></rect><rect width="8.578947368421051" height="66.66666666666667" x="529.0438596491229" y="100" stroke="none" fill="hsla(170, 59%, 69%, 1.00)" rx="4.289473684210526" transform="rotate(45, 533.3333333333334, 133.33333333333334)"></rect><rect width="66.66666666666667" height="8.578947368421051" x="633.3333333333334" y="129.04385964912282" stroke="none" fill="hsla(26, 10%, 50%, 1.00)" rx="4.289473684210526" transform="rotate(45, 666.6666666666667, 133.33333333333334)"></rect><rect width="8.578947368421051" height="66.66666666666667" x="662.3771929824562" y="100" stroke="none" fill="hsla(26, 10%, 50%, 1.00)" rx="4.289473684210526" transform="rotate(45, 666.6666666666667, 133.33333333333334)"></rect><rect width="66.66666666666667" height="8.578947368421051" x="766.6666666666667" y="129.04385964912282" stroke="none" fill="hsla(170, 59%, 69%, 1.00)" rx="4.289473684210526" transform="rotate(45, 800.0000000000001, 133.33333333333334)"></rect><rect width="8.578947368421051" height="66.66666666666667" x="795.7105263157896" y="100" stroke="none" fill="hsla(170, 59%, 69%, 1.00)" rx="4.289473684210526" transform="rotate(45, 800.0000000000001, 133.33333333333334)"></rect><rect width="66.66666666666667" height="8.578947368421051" x="-33.333333333333336" y="262.37719298245617" stroke="none" fill="hsla(26, 10%, 50%, 1.00)" rx="4.289473684210526" transform="rotate(45, 0, 266.6666666666667)"></rect><rect width="8.578947368421051" height="66.66666666666667" x="-4.289473684210526" y="233.33333333333334" stroke="none" fill="hsla(26, 10%, 50%, 1.00)" rx="4.289473684210526" transform="rotate(45, 0, 266.6666666666667)"></rect><rect width="66.66666666666667" height="8.578947368421051" x="100" y="262.37719298245617" stroke="none" fill="hsla(170, 59%, 69%, 1.00)" rx="4.289473684210526" transform="rotate(45, 133.33333333333334, 266.6666666666667)"></rect><rect width="8.578947368421051" height="66.66666666666667" x="129.04385964912282" y="233.33333333333334" stroke="none" fill="hsla(170, 59%, 69%, 1.00)" rx="4.289473684210526" transform="rotate(45, 133.33333333333334, 266.6666666666667)"></rect><rect width="66.66666666666667" height="8.578947368421051" x="233.33333333333334" y="262.37719298245617" stroke="none" fill="hsla(26, 10%, 50%, 1.00)" rx="4.289473684210526" transform="rotate(45, 266.6666666666667, 266.6666666666667)"></rect><rect width="8.578947368421051" height="66.66666666666667" x="262.37719298245617" y="233.33333333333334" stroke="none" fill="hsla(26, 10%, 50%, 1.00)" rx="4.289473684210526" transform="rotate(45, 266.6666666666667, 266.6666666666667)"></rect><rect width="66.66666666666667" height="8.578947368421051" x="366.6666666666667" y="262.37719298245617" stroke="none" fill="hsla(170, 59%, 69%, 1.00)" rx="4.289473684210526" transform="rotate(45, 400, 266.6666666666667)"></rect><rect width="8.578947368421051" height="66.66666666666667" x="395.7105263157895" y="233.33333333333334" stroke="none" fill="hsla(170, 59%, 69%, 1.00)" rx="4.289473684210526" transform="rotate(45, 400, 266.6666666666667)"></rect><rect width="66.66666666666667" height="8.578947368421051" x="500.00000000000006" y="262.37719298245617" stroke="none" fill="hsla(26, 10%, 50%, 1.00)" rx="4.289473684210526" transform="rotate(45, 533.3333333333334, 266.6666666666667)"></rect><rect width="8.578947368421051" height="66.66666666666667" x="529.0438596491229" y="233.33333333333334" stroke="none" fill="hsla(26, 10%, 50%, 1.00)" rx="4.289473684210526" transform="rotate(45, 533.3333333333334, 266.6666666666667)"></rect><rect width="66.66666666666667" height="8.578947368421051" x="633.3333333333334" y="262.37719298245617" stroke="none" fill="hsla(170, 59%, 69%, 1.00)" rx="4.289473684210526" transform="rotate(45, 666.6666666666667, 266.6666666666667)"></rect><rect width="8.578947368421051" height="66.66666666666667" x="662.3771929824562" y="233.33333333333334" stroke="none" fill="hsla(170, 59%, 69%, 1.00)" rx="4.289473684210526" transform="rotate(45, 666.6666666666667, 266.6666666666667)"></rect><rect width="66.66666666666667" height="8.578947368421051" x="766.6666666666667" y="262.37719298245617" stroke="none" fill="hsla(26, 10%, 50%, 1.00)" rx="4.289473684210526" transform="rotate(45, 800.0000000000001, 266.6666666666667)"></rect><rect width="8.578947368421051" height="66.66666666666667" x="795.7105263157896" y="233.33333333333334" stroke="none" fill="hsla(26, 10%, 50%, 1.00)" rx="4.289473684210526" transform="rotate(45, 800.0000000000001, 266.6666666666667)"></rect><rect width="66.66666666666667" height="8.578947368421051" x="-33.333333333333336" y="395.7105263157895" stroke="none" fill="hsla(170, 59%, 69%, 1.00)" rx="4.289473684210526" transform="rotate(45, 0, 400)"></rect><rect width="8.578947368421051" height="66.66666666666667" x="-4.289473684210526" y="366.6666666666667" stroke="none" fill="hsla(170, 59%, 69%, 1.00)" rx="4.289473684210526" transform="rotate(45, 0, 400)"></rect><rect width="66.66666666666667" height="8.578947368421051" x="100" y="395.7105263157895" stroke="none" fill="hsla(26, 10%, 50%, 1.00)" rx="4.289473684210526" transform="rotate(45, 133.33333333333334, 400)"></rect><rect width="8.578947368421051" height="66.66666666666667" x="129.04385964912282" y="366.6666666666667" stroke="none" fill="hsla(26, 10%, 50%, 1.00)" rx="4.289473684210526" transform="rotate(45, 133.33333333333334, 400)"></rect><rect width="66.66666666666667" height="8.578947368421051" x="233.33333333333334" y="395.7105263157895" stroke="none" fill="hsla(170, 59%, 69%, 1.00)" rx="4.289473684210526" transform="rotate(45, 266.6666666666667, 400)"></rect><rect width="8.578947368421051" height="66.66666666666667" x="262.37719298245617" y="366.6666666666667" stroke="none" fill="hsla(170, 59%, 69%, 1.00)" rx="4.289473684210526" transform="rotate(45, 266.6666666666667, 400)"></rect><rect width="66.66666666666667" height="8.578947368421051" x="366.6666666666667" y="395.7105263157895" stroke="none" fill="hsla(26, 10%, 50%, 1.00)" rx="4.289473684210526" transform="rotate(45, 400, 400)"></rect><rect width="8.578947368421051" height="66.66666666666667" x="395.7105263157895" y="366.6666666666667" stroke="none" fill="hsla(26, 10%, 50%, 1.00)" rx="4.289473684210526" transform="rotate(45, 400, 400)"></rect><rect width="66.66666666666667" height="8.578947368421051" x="500.00000000000006" y="395.7105263157895" stroke="none" fill="hsla(170, 59%, 69%, 1.00)" rx="4.289473684210526" transform="rotate(45, 533.3333333333334, 400)"></rect><rect width="8.578947368421051" height="66.66666666666667" x="529.0438596491229" y="366.6666666666667" stroke="none" fill="hsla(170, 59%, 69%, 1.00)" rx="4.289473684210526" transform="rotate(45, 533.3333333333334, 400)"></rect><rect width="66.66666666666667" height="8.578947368421051" x="633.3333333333334" y="395.7105263157895" stroke="none" fill="hsla(26, 10%, 50%, 1.00)" rx="4.289473684210526" transform="rotate(45, 666.6666666666667, 400)"></rect><rect width="8.578947368421051" height="66.66666666666667" x="662.3771929824562" y="366.6666666666667" stroke="none" fill="hsla(26, 10%, 50%, 1.00)" rx="4.289473684210526" transform="rotate(45, 666.6666666666667, 400)"></rect><rect width="66.66666666666667" height="8.578947368421051" x="766.6666666666667" y="395.7105263157895" stroke="none" fill="hsla(170, 59%, 69%, 1.00)" rx="4.289473684210526" transform="rotate(45, 800.0000000000001, 400)"></rect><rect width="8.578947368421051" height="66.66666666666667" x="795.7105263157896" y="366.6666666666667" stroke="none" fill="hsla(170, 59%, 69%, 1.00)" rx="4.289473684210526" transform="rotate(45, 800.0000000000001, 400)"></rect><rect width="66.66666666666667" height="8.578947368421051" x="-33.333333333333336" y="529.0438596491229" stroke="none" fill="hsla(26, 10%, 50%, 1.00)" rx="4.289473684210526" transform="rotate(45, 0, 533.3333333333334)"></rect><rect width="8.578947368421051" height="66.66666666666667" x="-4.289473684210526" y="500.00000000000006" stroke="none" fill="hsla(26, 10%, 50%, 1.00)" rx="4.289473684210526" transform="rotate(45, 0, 533.3333333333334)"></rect><rect width="66.66666666666667" height="8.578947368421051" x="100" y="529.0438596491229" stroke="none" fill="hsla(170, 59%, 69%, 1.00)" rx="4.289473684210526" transform="rotate(45, 133.33333333333334, 533.3333333333334)"></rect><rect width="8.578947368421051" height="66.66666666666667" x="129.04385964912282" y="500.00000000000006" stroke="none" fill="hsla(170, 59%, 69%, 1.00)" rx="4.289473684210526" transform="rotate(45, 133.33333333333334, 533.3333333333334)"></rect><rect width="66.66666666666667" height="8.578947368421051" x="233.33333333333334" y="529.0438596491229" stroke="none" fill="hsla(26, 10%, 50%, 1.00)" rx="4.289473684210526" transform="rotate(45, 266.6666666666667, 533.3333333333334)"></rect><rect width="8.578947368421051" height="66.66666666666667" x="262.37719298245617" y="500.00000000000006" stroke="none" fill="hsla(26, 10%, 50%, 1.00)" rx="4.289473684210526" transform="rotate(45, 266.6666666666667, 533.3333333333334)"></rect><rect width="66.66666666666667" height="8.578947368421051" x="366.6666666666667" y="529.0438596491229" stroke="none" fill="hsla(170, 59%, 69%, 1.00)" rx="4.289473684210526" transform="rotate(45, 400, 533.3333333333334)"></rect><rect width="8.578947368421051" height="66.66666666666667" x="395.7105263157895" y="500.00000000000006" stroke="none" fill="hsla(170, 59%, 69%, 1.00)" rx="4.289473684210526" transform="rotate(45, 400, 533.3333333333334)"></rect><rect width="66.66666666666667" height="8.578947368421051" x="500.00000000000006" y="529.0438596491229" stroke="none" fill="hsla(26, 10%, 50%, 1.00)" rx="4.289473684210526" transform="rotate(45, 533.3333333333334, 533.3333333333334)"></rect><rect width="8.578947368421051" height="66.66666666666667" x="529.0438596491229" y="500.00000000000006" stroke="none" fill="hsla(26, 10%, 50%, 1.00)" rx="4.289473684210526" transform="rotate(45, 533.3333333333334, 533.3333333333334)"></rect><rect width="66.66666666666667" height="8.578947368421051" x="633.3333333333334" y="529.0438596491229" stroke="none" fill="hsla(170, 59%, 69%, 1.00)" rx="4.289473684210526" transform="rotate(45, 666.6666666666667, 533.3333333333334)"></rect><rect width="8.578947368421051" height="66.66666666666667" x="662.3771929824562" y="500.00000000000006" stroke="none" fill="hsla(170, 59%, 69%, 1.00)" rx="4.289473684210526" transform="rotate(45, 666.6666666666667, 533.3333333333334)"></rect><rect width="66.66666666666667" height="8.578947368421051" x="766.6666666666667" y="529.0438596491229" stroke="none" fill="hsla(26, 10%, 50%, 1.00)" rx="4.289473684210526" transform="rotate(45, 800.0000000000001, 533.3333333333334)"></rect><rect width="8.578947368421051" height="66.66666666666667" x="795.7105263157896" y="500.00000000000006" stroke="none" fill="hsla(26, 10%, 50%, 1.00)" rx="4.289473684210526" transform="rotate(45, 800.0000000000001, 533.3333333333334)"></rect><rect width="66.66666666666667" height="8.578947368421051" x="-33.333333333333336" y="662.3771929824562" stroke="none" fill="hsla(170, 59%, 69%, 1.00)" rx="4.289473684210526" transform="rotate(45, 0, 666.6666666666667)"></rect><rect width="8.578947368421051" height="66.66666666666667" x="-4.289473684210526" y="633.3333333333334" stroke="none" fill="hsla(170, 59%, 69%, 1.00)" rx="4.289473684210526" transform="rotate(45, 0, 666.6666666666667)"></rect><rect width="66.66666666666667" height="8.578947368421051" x="100" y="662.3771929824562" stroke="none" fill="hsla(26, 10%, 50%, 1.00)" rx="4.289473684210526" transform="rotate(45, 133.33333333333334, 666.6666666666667)"></rect><rect width="8.578947368421051" height="66.66666666666667" x="129.04385964912282" y="633.3333333333334" stroke="none" fill="hsla(26, 10%, 50%, 1.00)" rx="4.289473684210526" transform="rotate(45, 133.33333333333334, 666.6666666666667)"></rect><rect width="66.66666666666667" height="8.578947368421051" x="233.33333333333334" y="662.3771929824562" stroke="none" fill="hsla(170, 59%, 69%, 1.00)" rx="4.289473684210526" transform="rotate(45, 266.6666666666667, 666.6666666666667)"></rect><rect width="8.578947368421051" height="66.66666666666667" x="262.37719298245617" y="633.3333333333334" stroke="none" fill="hsla(170, 59%, 69%, 1.00)" rx="4.289473684210526" transform="rotate(45, 266.6666666666667, 666.6666666666667)"></rect><rect width="66.66666666666667" height="8.578947368421051" x="366.6666666666667" y="662.3771929824562" stroke="none" fill="hsla(26, 10%, 50%, 1.00)" rx="4.289473684210526" transform="rotate(45, 400, 666.6666666666667)"></rect><rect width="8.578947368421051" height="66.66666666666667" x="395.7105263157895" y="633.3333333333334" stroke="none" fill="hsla(26, 10%, 50%, 1.00)" rx="4.289473684210526" transform="rotate(45, 400, 666.6666666666667)"></rect><rect width="66.66666666666667" height="8.578947368421051" x="500.00000000000006" y="662.3771929824562" stroke="none" fill="hsla(170, 59%, 69%, 1.00)" rx="4.289473684210526" transform="rotate(45, 533.3333333333334, 666.6666666666667)"></rect><rect width="8.578947368421051" height="66.66666666666667" x="529.0438596491229" y="633.3333333333334" stroke="none" fill="hsla(170, 59%, 69%, 1.00)" rx="4.289473684210526" transform="rotate(45, 533.3333333333334, 666.6666666666667)"></rect><rect width="66.66666666666667" height="8.578947368421051" x="633.3333333333334" y="662.3771929824562" stroke="none" fill="hsla(26, 10%, 50%, 1.00)" rx="4.289473684210526" transform="rotate(45, 666.6666666666667, 666.6666666666667)"></rect><rect width="8.578947368421051" height="66.66666666666667" x="662.3771929824562" y="633.3333333333334" stroke="none" fill="hsla(26, 10%, 50%, 1.00)" rx="4.289473684210526" transform="rotate(45, 666.6666666666667, 666.6666666666667)"></rect><rect width="66.66666666666667" height="8.578947368421051" x="766.6666666666667" y="662.3771929824562" stroke="none" fill="hsla(170, 59%, 69%, 1.00)" rx="4.289473684210526" transform="rotate(45, 800.0000000000001, 666.6666666666667)"></rect><rect width="8.578947368421051" height="66.66666666666667" x="795.7105263157896" y="633.3333333333334" stroke="none" fill="hsla(170, 59%, 69%, 1.00)" rx="4.289473684210526" transform="rotate(45, 800.0000000000001, 666.6666666666667)"></rect><rect width="66.66666666666667" height="8.578947368421051" x="-33.333333333333336" y="795.7105263157896" stroke="none" fill="hsla(26, 10%, 50%, 1.00)" rx="4.289473684210526" transform="rotate(45, 0, 800.0000000000001)"></rect><rect width="8.578947368421051" height="66.66666666666667" x="-4.289473684210526" y="766.6666666666667" stroke="none" fill="hsla(26, 10%, 50%, 1.00)" rx="4.289473684210526" transform="rotate(45, 0, 800.0000000000001)"></rect><rect width="66.66666666666667" height="8.578947368421051" x="100" y="795.7105263157896" stroke="none" fill="hsla(170, 59%, 69%, 1.00)" rx="4.289473684210526" transform="rotate(45, 133.33333333333334, 800.0000000000001)"></rect><rect width="8.578947368421051" height="66.66666666666667" x="129.04385964912282" y="766.6666666666667" stroke="none" fill="hsla(170, 59%, 69%, 1.00)" rx="4.289473684210526" transform="rotate(45, 133.33333333333334, 800.0000000000001)"></rect><rect width="66.66666666666667" height="8.578947368421051" x="233.33333333333334" y="795.7105263157896" stroke="none" fill="hsla(26, 10%, 50%, 1.00)" rx="4.289473684210526" transform="rotate(45, 266.6666666666667, 800.0000000000001)"></rect><rect width="8.578947368421051" height="66.66666666666667" x="262.37719298245617" y="766.6666666666667" stroke="none" fill="hsla(26, 10%, 50%, 1.00)" rx="4.289473684210526" transform="rotate(45, 266.6666666666667, 800.0000000000001)"></rect><rect width="66.66666666666667" height="8.578947368421051" x="366.6666666666667" y="795.7105263157896" stroke="none" fill="hsla(170, 59%, 69%, 1.00)" rx="4.289473684210526" transform="rotate(45, 400, 800.0000000000001)"></rect><rect width="8.578947368421051" height="66.66666666666667" x="395.7105263157895" y="766.6666666666667" stroke="none" fill="hsla(170, 59%, 69%, 1.00)" rx="4.289473684210526" transform="rotate(45, 400, 800.0000000000001)"></rect><rect width="66.66666666666667" height="8.578947368421051" x="500.00000000000006" y="795.7105263157896" stroke="none" fill="hsla(26, 10%, 50%, 1.00)" rx="4.289473684210526" transform="rotate(45, 533.3333333333334, 800.0000000000001)"></rect><rect width="8.578947368421051" height="66.66666666666667" x="529.0438596491229" y="766.6666666666667" stroke="none" fill="hsla(26, 10%, 50%, 1.00)" rx="4.289473684210526" transform="rotate(45, 533.3333333333334, 800.0000000000001)"></rect><rect width="66.66666666666667" height="8.578947368421051" x="633.3333333333334" y="795.7105263157896" stroke="none" fill="hsla(170, 59%, 69%, 1.00)" rx="4.289473684210526" transform="rotate(45, 666.6666666666667, 800.0000000000001)"></rect><rect width="8.578947368421051" height="66.66666666666667" x="662.3771929824562" y="766.6666666666667" stroke="none" fill="hsla(170, 59%, 69%, 1.00)" rx="4.289473684210526" transform="rotate(45, 666.6666666666667, 800.0000000000001)"></rect><rect width="66.66666666666667" height="8.578947368421051" x="766.6666666666667" y="795.7105263157896" stroke="none" fill="hsla(26, 10%, 50%, 1.00)" rx="4.289473684210526" transform="rotate(45, 800.0000000000001, 800.0000000000001)"></rect><rect width="8.578947368421051" height="66.66666666666667" x="795.7105263157896" y="766.6666666666667" stroke="none" fill="hsla(26, 10%, 50%, 1.00)" rx="4.289473684210526" transform="rotate(45, 800.0000000000001, 800.0000000000001)"></rect></g></svg>